name D:\school\WTK\thesis\model\3dpredictsim\Results\MidTarsalJoint\Fal_s1_bCst_PF_Natali2010_ls148_MT_nl_fitted5_MTP_T5_ig24.mot
datacolumns 128
datarows 4
range 0.57400237 0.60844252
endheader
time	pelvis_tilt	pelvis_list	pelvis_rotation	pelvis_tx	pelvis_ty	pelvis_tz	hip_flexion_l	hip_adduction_l	hip_rotation_l	hip_flexion_r	hip_adduction_r	hip_rotation_r	knee_angle_l	knee_angle_r	ankle_angle_l	ankle_angle_r	subtalar_angle_l	subtalar_angle_r	mtj_angle_l	mtj_angle_r	mtp_angle_l	mtp_angle_r	lumbar_extension	lumbar_bending	lumbar_rotation	arm_flex_l	arm_add_l	arm_rot_l	arm_flex_r	arm_add_r	arm_rot_r	elbow_flex_l	elbow_flex_r	pro_sup_l	pro_sup_r	glut_med1_l/activation	glut_med2_l/activation	glut_med3_l/activation	glut_min1_l/activation	glut_min2_l/activation	glut_min3_l/activation	semimem_l/activation	semiten_l/activation	bifemlh_l/activation	bifemsh_l/activation	sar_l/activation	add_long_l/activation	add_brev_l/activation	add_mag1_l/activation	add_mag2_l/activation	add_mag3_l/activation	tfl_l/activation	pect_l/activation	grac_l/activation	glut_max1_l/activation	glut_max2_l/activation	glut_max3_l/activation	iliacus_l/activation	psoas_l/activation	quad_fem_l/activation	gem_l/activation	peri_l/activation	rect_fem_l/activation	vas_med_l/activation	vas_int_l/activation	vas_lat_l/activation	med_gas_l/activation	lat_gas_l/activation	soleus_l/activation	tib_post_l/activation	flex_dig_l/activation	flex_hal_l/activation	tib_ant_l/activation	per_brev_l/activation	per_long_l/activation	per_tert_l/activation	ext_dig_l/activation	ext_hal_l/activation	ercspn_l/activation	intobl_l/activation	extobl_l/activation	glut_med1_r/activation	glut_med2_r/activation	glut_med3_r/activation	glut_min1_r/activation	glut_min2_r/activation	glut_min3_r/activation	semimem_r/activation	semiten_r/activation	bifemlh_r/activation	bifemsh_r/activation	sar_r/activation	add_long_r/activation	add_brev_r/activation	add_mag1_r/activation	add_mag2_r/activation	add_mag3_r/activation	tfl_r/activation	pect_r/activation	grac_r/activation	glut_max1_r/activation	glut_max2_r/activation	glut_max3_r/activation	iliacus_r/activation	psoas_r/activation	quad_fem_r/activation	gem_r/activation	peri_r/activation	rect_fem_r/activation	vas_med_r/activation	vas_int_r/activation	vas_lat_r/activation	med_gas_r/activation	lat_gas_r/activation	soleus_r/activation	tib_post_r/activation	flex_dig_r/activation	flex_hal_r/activation	tib_ant_r/activation	per_brev_r/activation	per_long_r/activation	per_tert_r/activation	ext_dig_r/activation	ext_hal_r/activation	ercspn_r/activation	intobl_r/activation	extobl_r/activation	
          0.57400237	         -2.93008113	          2.15266901	         -5.63422802	          0.71750297	          0.91856363	          0.00225435	         29.16630133	          3.42163861	         -2.42805234	        -16.23196434	         -1.05426708	          6.85124267	         -9.88229689	         -9.23066236	          5.68566992	         -1.82402356	         -5.07334933	          9.53088166	         -1.35010986	          5.94314395	          4.03287119	          7.22720374	         -1.97889409	         -0.38600107	          2.16606030	         -5.69696868	        -13.45800107	          6.46088831	          4.97341462	        -13.45475277	         16.56067968	         16.77464651	         35.34083884	         86.51662706	         86.51662706	          0.05956668	          0.05956668	          0.05000039	          0.05956679	          0.05956676	          0.05869054	          0.21003623	          0.09302628	          0.13636193	          0.06401359	          0.05000048	          0.17030251	          0.27808937	          0.25574666	          0.23276633	          0.11115068	          0.05000034	          0.05004171	          0.15156549	          0.05000429	          0.05526243	          0.15788000	          0.05956610	          0.05000401	          0.28921875	          0.31748184	          0.13966085	          0.05000048	          0.11118859	          0.10772509	          0.09896911	          0.07040007	          0.07352584	          0.06285306	          0.05000015	          0.05000097	          0.05000111	          0.49043432	          0.25132849	          0.16765209	          0.20010849	          0.47347725	          0.23126067	          0.05731880	          0.11285449	          0.09429364	          0.25914139	          0.10071766	          0.07105639	          0.27716305	          0.18768260	          0.10369572	          0.05000465	          0.05000064	          0.05000039	          0.05424739	          0.10844183	          0.10578328	          0.08064300	          0.05003383	          0.05001893	          0.05000181	          0.30345497	          0.11365596	          0.05003708	          0.05000315	          0.05000157	          0.05000163	          0.40335395	          0.62330698	          0.05000030	          0.05000100	          0.05252665	          0.26811162	          0.05000085	          0.05000086	          0.05000079	          0.27013863	          0.36020607	          0.34235520	          0.25125970	          0.23011344	          0.30441216	          0.05000007	          0.05956709	          0.13794132	          0.05000045	          0.05000011	          0.05000041	          0.05000005	          0.05000050	          0.06428101	
          0.58548242	         -2.92834472	          2.23076414	         -5.88595995	          0.73489610	          0.91777031	          0.00204632	         28.49320407	          3.82120750	         -2.17784105	        -16.07181864	         -1.34004292	          6.67140367	        -10.30510558	        -11.22273494	          5.05082066	         -2.41893281	         -5.44373495	         10.53151423	         -1.45487235	          5.13169673	          3.95509036	          8.72302946	         -1.77288536	         -0.58051801	          2.23592498	         -6.61791699	        -13.44992564	          6.24721086	          4.66130633	        -13.46457579	         16.86494831	         16.46277239	         36.50934573	         86.51662706	         86.51662706	          0.05000002	          0.05000006	          0.10298430	          0.05000010	          0.05000010	          0.05000010	          0.17630351	          0.07808593	          0.11446159	          0.05373303	          0.05956766	          0.14295132	          0.33153857	          0.33391039	          0.21440565	          0.11341002	          0.05000044	          0.07126228	          0.15645445	          0.05000862	          0.10059341	          0.14213503	          0.05000022	          0.05000407	          0.58444834	          0.26649277	          0.11723077	          0.05956709	          0.10696683	          0.11424645	          0.09158340	          0.06835701	          0.07096343	          0.06151746	          0.05956660	          0.05003695	          0.05955743	          0.48768677	          0.28813829	          0.21330746	          0.16797039	          0.42831115	          0.19411919	          0.05000001	          0.09472951	          0.07914963	          0.21752213	          0.08454198	          0.05964454	          0.23264956	          0.15753999	          0.08704177	          0.05000621	          0.05000131	          0.05000206	          0.05000021	          0.09102585	          0.18806935	          0.06769175	          0.05956835	          0.05956634	          0.05956725	          0.25471889	          0.09540489	          0.05000719	          0.05005844	          0.05006170	          0.05956021	          0.33857348	          0.57564959	          0.05956708	          0.05956566	          0.05000123	          0.22505181	          0.12213476	          0.12460319	          0.14979190	          0.22675305	          0.30235524	          0.28737132	          0.21090634	          0.19315657	          0.25552250	          0.05000003	          0.05000050	          0.15056576	          0.05000016	          0.05000006	          0.05000024	          0.06590111	          0.07096257	          0.06519819	
          0.59696247	         -2.92158624	          2.31091154	         -6.10286113	          0.75260055	          0.91696029	          0.00186575	         27.68875883	          4.09517132	         -1.90197900	        -15.88218006	         -1.62251691	          6.48446991	        -10.79796558	        -13.25219645	          4.50611285	         -3.06377185	         -5.82057763	         11.47556685	         -1.68271242	          4.03230026	          4.01084756	         10.38609041	         -1.54482026	         -0.78404760	          2.29303627	         -7.55749884	        -13.45246092	          6.10301412	          4.26307857	        -13.47041322	         17.07623895	         16.18195967	         37.66696673	         86.51662706	         86.51662706	          0.24570133	          0.25485404	          0.27429211	          0.42894326	          0.27913804	          0.21558344	          0.14798857	          0.06554619	          0.09607899	          0.05851728	          0.05000162	          0.11999269	          0.27829191	          0.28028290	          0.17997135	          0.11459855	          0.05000103	          0.05981790	          0.13132743	          0.10488713	          0.10979279	          0.11930769	          0.05039555	          0.05000101	          0.49058313	          0.22369291	          0.21925808	          0.05000042	          0.08978775	          0.09589823	          0.07687492	          0.05737861	          0.05956646	          0.05163815	          0.05000019	          0.05000062	          0.05000071	          0.54814953	          0.34667170	          0.17904952	          0.36405595	          0.50583201	          0.16294334	          0.06336212	          0.11822994	          0.06643783	          0.34418303	          0.07096422	          0.05006565	          0.32060435	          0.13223858	          0.07306257	          0.05000353	          0.05000032	          0.05000024	          0.05000085	          0.07640746	          0.15786463	          0.05682047	          0.05000173	          0.05000141	          0.05000085	          0.26908962	          0.08008817	          0.05000401	          0.05000567	          0.05000214	          0.05000104	          0.28419717	          0.54203853	          0.05000094	          0.05000317	          0.05000216	          0.18890764	          0.10251949	          0.10459148	          0.12573475	          0.19033540	          0.25379553	          0.24121808	          0.17703380	          0.16213487	          0.21448448	          0.05003557	          0.06542745	          0.16955604	          0.05000068	          0.09039711	          0.05000078	          0.05914965	          0.05956564	          0.05472707	
          0.60844252	         -2.91205886	          2.38171294	         -6.28052245	          0.77039216	          0.91618351	          0.00165724	         26.84380454	          4.33064298	         -1.63166521	        -15.61894225	         -1.89127229	          6.31958756	        -11.23200578	        -15.37011973	          3.93117884	         -3.71225191	         -6.18886050	         12.38551738	         -1.60390936	          2.58547487	          4.08288465	         12.25373601	         -1.31931867	         -0.98352972	          2.33968811	         -8.46722543	        -13.45613037	          6.02513693	          3.81834445	        -13.48243458	         17.22358057	         15.90977551	         38.78974622	         86.51662706	         86.51662706	          0.34133227	          0.34607356	          0.37411040	          0.36005305	          0.23430783	          0.22570721	          0.12422113	          0.07246694	          0.08201446	          0.05000115	          0.05000288	          0.10072132	          0.23359693	          0.23526839	          0.15106771	          0.14743968	          0.05000064	          0.05021143	          0.11023596	          0.22448658	          0.17950566	          0.14638060	          0.05000010	          0.05000013	          0.41179315	          0.18776686	          0.18404475	          0.05000017	          0.12390796	          0.13342105	          0.10051259	          0.05000005	          0.05000012	          0.05000001	          0.05000006	          0.05000021	          0.05000024	          0.62166644	          0.32662817	          0.17331173	          0.59345612	          0.55316686	          0.29537700	          0.08078419	          0.09924165	          0.05576762	          0.28891078	          0.05956709	          0.05000026	          0.26911430	          0.11100055	          0.06132845	          0.05000361	          0.05000034	          0.05000036	          0.05000020	          0.06413632	          0.15522857	          0.11162106	          0.05003513	          0.05004824	          0.05001626	          0.22587302	          0.06723706	          0.05000144	          0.05000778	          0.05000438	          0.05000347	          0.23855376	          0.48332105	          0.05000058	          0.05000209	          0.05000038	          0.15856819	          0.11998795	          0.11998793	          0.10572941	          0.15976661	          0.21303474	          0.20247727	          0.14860136	          0.13609539	          0.18003735	          0.10780940	          0.12207727	          0.14232529	          0.05000553	          0.15645778	          0.05001600	          0.07362776	          0.05000003	          0.05000006	
